<svg
    xmlns="http://www.w3.org/2000/svg"
    viewBox="0 0 270 320"
    id="vector">
    <path
        id="path"
        d="M 182.908 302.39 C 184.397 301.153 199.941 289.339 204.341 285.746 L 206.817 283.69 C 220.62 272.009 234.456 256.953 236.548 238.519 C 237.367 231.2 238.371 223.846 239.459 216.677 C 250.719 211.915 261.527 196.992 266.847 177.641 C 274.125 151.12 268.403 127.207 253.797 123.194 C 253.462 123.111 253.111 123.061 252.776 122.977 C 252.626 118.148 252.459 113.218 252.459 108.221 C 252.459 79.946 242.169 55.08 224.518 36.329 L 222.41 34.19 C 216.085 27.857 208.908 22.259 200.944 17.53 L 183.341 8.974 C 169.973 3.777 155.116 0.685 139.173 0.117 L 135.375 0.017 L 134.003 0 L 130.791 0.05 C 114.863 0.702 100.04 3.793 86.688 8.99 L 69.157 17.529 C 61.226 22.259 54.049 27.84 47.758 34.19 L 46.051 34.19 L 46.051 35.895 C 28.3 54.611 17.926 79.509 17.926 107.834 C 17.926 112.897 17.726 117.96 17.525 122.89 C 17.073 122.974 16.638 123.04 16.203 123.157 C 1.597 127.168 -4.125 151.065 3.153 177.604 C 8.473 196.955 19.281 211.878 30.541 216.64 C 31.629 223.81 32.616 231.162 33.452 238.482 C 35.544 256.914 49.38 271.954 63.183 283.636 L 65.659 285.692 C 70.043 289.301 74.376 292.56 78.241 295.484 C 81.654 298.058 84.683 300.347 87.092 302.353 L 94.206 308.436 C 104.312 316.223 114.35 319.315 130.797 319.9 L 134.595 319.983 L 135.967 320 L 139.179 319.967 C 154.839 319.332 164.66 316.474 174.297 309.489 L 182.908 302.39 Z M 240.698 208.658 C 244.111 187.703 248.076 169.32 250.586 160.248 C 253.112 151.057 253.246 140.696 252.962 129.717 C 263.034 133.561 266.581 154.266 260.625 175.924 C 256.575 190.677 248.678 203.06 240.698 208.658 Z M 17.255 129.616 C 16.871 140.662 16.871 151.073 19.38 160.248 C 21.873 169.322 25.855 187.721 29.268 208.726 C 21.237 203.145 13.391 190.728 9.325 175.922 C 3.335 154.08 6.982 133.225 17.255 129.616 Z M 134.958 313.57 L 134.038 313.553 C 114.346 313.236 104.843 309.91 93.332 299.366 C 90.521 296.792 86.606 293.818 82.055 290.392 C 80.114 288.921 78.057 287.367 75.915 285.73 L 73.188 283.591 C 58.548 272.027 41.901 256.502 39.776 237.786 C 36.095 205.434 29.236 171.96 25.555 158.557 C 22.861 148.765 23.346 136.783 23.865 124.099 C 24.082 118.819 24.3 113.354 24.3 107.856 C 24.3 79.214 35.643 54.295 54.8 36.332 L 57.176 34.193 C 64.739 27.542 73.422 21.944 83.026 17.532 L 94.102 13.138 C 106.315 9.01 119.717 6.671 134.005 6.453 L 135.862 6.453 C 149.531 6.654 162.397 8.793 174.176 12.586 L 186.925 17.532 C 196.562 21.927 205.262 27.542 212.841 34.193 L 215.217 36.332 C 234.525 54.38 245.935 79.412 245.935 108.224 C 245.935 113.321 246.103 118.368 246.253 123.297 C 246.672 136.231 247.073 148.447 244.296 158.541 C 240.598 171.976 233.739 205.449 230.074 237.769 C 227.95 256.486 211.302 272.01 196.663 283.574 L 193.869 285.713 C 191.811 287.367 178.309 297.695 176.502 299.349 C 173.892 301.756 171.382 303.727 168.839 305.432 L 165.392 307.488 C 157.746 311.715 149.13 313.336 135.896 313.554 L 134.958 313.57 Z"
        fill="#ffffff"
        fill-opacity="0.5"
        stroke="#00000000"
        stroke-opacity="0.5"
        stroke-width="1"/>
</svg>
